<svg xmlns="http://www.w3.org/2000/svg" viewBox="0 0 640 140">
  <rect width="640" height="140" fill="#1D1D1F"/>
  <g transform="translate(20,20) scale(1.0)">
    <path d="M50,7 C63,7 75,11.5 81,16 L81,44 C81,68 68,86 50,95 C32,86 19,68 19,44 L19,16 C25,11.5 37,7 50,7 Z M41,35 A9,9 0 1,0 59,35 A9,9 0 1,0 41,35 Z M46.5,44 L53.5,44 L52.75,65.5 Q52.75,67 51.25,67 L48.75,67 Q47.25,67 47.25,65.5 Z" fill="#FFFFFF" fill-rule="evenodd" transform="scale(1.0)"/>
  </g>
  <text x="122" y="83" font-family="Inter SemiBold" font-weight="600" font-size="44"
        letter-spacing="-0.5" fill="#FFFFFF">Agent Auth Lab</text>
</svg>